<svg width="512" height="512" xmlns="http://www.w3.org/2000/svg" xml:space="preserve" version="1.1">

 <g>
  <title>Layer 1</title>
  <path id="svg_1" fill="#1B4145" d="m512,383.932l0,34.133c-42.928,0 -101.831,-38.286 -164.068,-38.286c-36.671,0 -59.654,15.132 -73.466,30.254l-18.466,0l-22.756,-106.018l278.756,79.917z"/>
  <path id="svg_2" fill="#609399" d="m256,304.015l0,106.018l-18.466,0c-13.813,-15.121 -36.796,-30.254 -73.466,-30.254c-62.236,0 -121.139,38.286 -164.068,38.286l0,-34.133l256,-79.917z"/>
  <path stroke="null" id="svg_3" fill="#6FC5D6" d="m512,40.221l0,343.711c-42.928,0 -101.831,-38.286 -164.068,-38.286c-36.671,0 -59.654,15.132 -73.466,30.254l-18.466,0l-45.511,-156.723l45.511,-156.724c0,0 18.591,-60.518 91.932,-60.518c62.237,0 121.14,38.286 164.068,38.286z"/>
  <path stroke="null" id="svg_4" fill="#B4E5EA" d="m256,62.453l0,313.446l-18.466,0c-13.813,-15.132 -36.796,-30.254 -73.466,-30.254c-62.236,0 -121.139,38.286 -164.068,38.286l0,-343.71c42.928,0 101.831,-38.286 164.068,-38.286c73.341,0 91.932,60.518 91.932,60.518z"/>
  <g id="svg_5"/>
  <g id="svg_6"/>
  <g id="svg_7"/>
  <g id="svg_8"/>
  <g id="svg_9"/>
  <g id="svg_10"/>
  <g id="svg_11"/>
  <g id="svg_12"/>
  <g id="svg_13"/>
  <g id="svg_14"/>
  <g id="svg_15"/>
  <g id="svg_16"/>
  <g id="svg_17"/>
  <g id="svg_18"/>
  <g id="svg_19"/>
  <text font-style="normal" font-weight="normal" transform="matrix(2.02124 0 0 2.02124 -91.226 -462.943)" xml:space="preserve" text-anchor="start" font-family="'Plaster'" font-size="24" stroke-width="0" id="svg_20" y="465.51576" x="96.02013" fill="#609399">BOOK SHOP</text>
 </g>
</svg>